<?xml version="1.0" encoding="UTF-8"?>
<svg version="1.1" xmlns="http://www.w3.org/2000/svg" width="300" height="300">
<path d="M0 0 C1.30032669 0.00181274 1.30032669 0.00181274 2.62692261 0.00366211 C42.15410481 0.15328779 77.23988544 14.46519033 105.63427734 41.99804688 C106.90169726 43.21996967 108.19336299 44.41663226 109.48828125 45.609375 C128.2403417 63.32890637 140.32293683 87.61402424 146.9375 112.25 C147.12860352 112.96124023 147.31970703 113.67248047 147.51660156 114.40527344 C150.41837022 125.99654896 151.43062403 137.64041536 151.375 149.5625 C151.37008545 150.82553955 151.3651709 152.0885791 151.36010742 153.38989258 C151.23270156 163.63659083 150.33385966 173.38733309 148.0625 183.375 C147.90152832 184.10654297 147.74055664 184.83808594 147.57470703 185.59179688 C142.26716944 208.94292289 130.88534304 230.46184826 115.0625 248.375 C114.20914062 249.36113281 113.35578125 250.34726563 112.4765625 251.36328125 C89.22126405 277.82170769 53.02702617 297.65427618 17.5390625 300.24609375 C0.92070567 301.11108709 -15.69852706 301.31859622 -31.9375 297.375 C-32.74525879 297.18695801 -33.55301758 296.99891602 -34.38525391 296.80517578 C-54.30462853 292.05130187 -72.50005773 283.58942391 -88.9375 271.375 C-89.87335938 270.68148438 -90.80921875 269.98796875 -91.7734375 269.2734375 C-123.16249454 244.69608199 -143.989804 209.07823267 -148.9375 169.375 C-149.10073637 166.53787311 -149.14720458 163.70465644 -149.17578125 160.86328125 C-149.1855751 160.06127289 -149.19536896 159.25926453 -149.20545959 158.43295288 C-149.52506166 125.50976392 -149.52506166 125.50976392 -144.9375 110.375 C-144.72319336 109.62105957 -144.50888672 108.86711914 -144.28808594 108.09033203 C-141.07428315 96.89815855 -136.6249617 86.52597561 -130.9375 76.375 C-130.56641113 75.71258301 -130.19532227 75.05016602 -129.81298828 74.36767578 C-123.68729486 63.63409099 -116.32436801 54.42240893 -107.9375 45.375 C-107.24011719 44.60671875 -106.54273438 43.8384375 -105.82421875 43.046875 C-78.53468972 14.29645041 -38.97105087 -0.10016477 0 0 Z M-66.640625 50.125 C-71.13031072 56.11124763 -71.70442524 62.10016632 -70.9375 69.375 C-69.12060653 75.59184032 -65.27071974 79.83504629 -59.9375 83.375 C-54.18976129 86.00938024 -48.77084871 86.17458236 -42.8125 84.125 C-36.84489596 81.62505777 -33.39099761 78.46451724 -30.734375 72.57421875 C-28.24466512 65.70310767 -28.56462536 60.35448407 -31.56640625 53.67578125 C-34.22975976 49.20650713 -37.84828589 46.61723541 -42.25 44 C-51.24699296 41.90767605 -59.98041677 43.28148328 -66.640625 50.125 Z M-14.8125 50.375 C-19.49377024 56.9838521 -19.67864169 62.33794398 -18.9375 70.375 C-17.39298194 76.79148777 -13.5965735 79.82726032 -8.15625 83.24609375 C-3.22185757 85.75672652 1.93143956 86.28049831 7.3046875 84.7265625 C14.00485069 82.08710427 17.80126372 78.17798829 21.4375 72.0625 C23.06822451 65.05038462 22.66067428 58.70282374 19.0625 52.375 C14.96161294 47.62660445 10.28054621 43.83201744 3.86328125 43.13671875 C-3.83870966 42.90698904 -9.63089871 44.42295654 -14.8125 50.375 Z M34.3125 53.4375 C31.27664887 58.14306926 31.49295334 63.97244315 32.0625 69.375 C33.87939347 75.59184032 37.72928026 79.83504629 43.0625 83.375 C48.81023871 86.00938024 54.22915129 86.17458236 60.1875 84.125 C66.15510404 81.62505777 69.60900239 78.46451724 72.265625 72.57421875 C74.75533488 65.70310767 74.43537464 60.35448407 71.43359375 53.67578125 C68.77024024 49.20650713 65.15171411 46.61723541 60.75 44 C49.4441416 41.37073061 41.71041123 44.71853319 34.3125 53.4375 Z M-65.7265625 100.31640625 C-70.78348445 106.82329871 -71.71017031 112.20037208 -70.9375 120.375 C-69.1213456 127.15376736 -64.72326791 130.75576423 -58.9375 134.375 C-54.48321922 136.60214039 -48.77055183 135.87301939 -43.9375 135.375 C-38.26698097 133.28680886 -34.28289389 129.2946969 -30.9375 124.375 C-28.43319022 118.34189008 -28.33930921 112.51539063 -30.69140625 106.421875 C-33.84761145 100.34717043 -38.48041458 96.54328164 -44.9375 94.375 C-52.96932418 93.3425084 -60.06349976 94.17111765 -65.7265625 100.31640625 Z M-16.80859375 103.69140625 C-20.23180332 108.79660806 -19.32127315 115.50978777 -18.9375 121.375 C-17.05186187 127.47559394 -12.39809236 131.21305211 -7.10546875 134.51953125 C-1.76540503 136.62669153 5.21994604 136.45490276 10.55078125 134.4296875 C16.06328593 131.12841351 20.37779643 126.69263839 22.0625 120.375 C22.84305457 112.33665735 21.46422017 106.84415136 16.8125 100.125 C12.10381902 95.41631902 8.10470025 94.21532947 1.625 93.9375 C-6.68067144 94.21056317 -11.62959049 97.3552415 -16.80859375 103.69140625 Z M37.2734375 100.31640625 C32.22451147 106.81301013 31.26934319 112.20883626 32.0625 120.375 C34.02707928 127.05456956 38.03477953 130.86866739 43.8515625 134.48828125 C49.47266054 136.74267923 56.7410305 136.06284282 62.4375 134.375 C67.80848749 130.28281906 72.96217739 125.25201633 74.0625 118.375 C74.13559233 111.05358467 72.86447375 105.30231354 67.640625 99.90625 C62.08573048 94.98129197 57.06807582 93.89553042 49.84375 94.0703125 C44.56855932 94.6482126 40.87647263 96.40656246 37.2734375 100.31640625 Z M-65.7265625 152.28125 C-70.75386738 158.66664199 -71.79940253 164.30225096 -70.9375 172.375 C-69.16880852 178.20662847 -66.04095816 182.00479178 -60.9375 185.375 C-55.07324933 188.42166148 -50.01429221 188.84101291 -43.5859375 187.35546875 C-37.4267732 185.07530615 -33.37882073 180.8249316 -30.375 175.0625 C-28.19971984 169.38743576 -28.56030949 164.01219546 -30.69921875 158.36328125 C-33.80379359 152.32442471 -38.55011306 148.51987697 -44.9375 146.375 C-52.98055345 145.34106488 -60.0122688 146.19265759 -65.7265625 152.28125 Z M-14.8125 153.375 C-19.50773005 160.00356007 -19.55131514 165.32496541 -18.9375 173.375 C-17.2185602 179.17642181 -12.98959653 183.19559164 -7.9375 186.375 C-1.75654285 188.68716954 3.85389385 188.99249498 9.9921875 186.484375 C14.86570868 183.87290327 18.12528628 180.91686774 21 176.1875 C22.79171411 169.75840819 23.25577809 163.31090516 20.5625 157.0625 C17.58282855 151.87210457 12.68838522 148.25029507 7.0625 146.375 C-1.71295888 145.51021326 -8.82054684 146.51212341 -14.8125 153.375 Z M37.2734375 152.31640625 C32.22451147 158.81301013 31.26934319 164.20883626 32.0625 172.375 C33.78232843 178.22241665 36.96556163 182.00909731 42.0625 185.375 C47.92675067 188.42166148 52.98570779 188.84101291 59.4140625 187.35546875 C65.5732268 185.07530615 69.62117927 180.8249316 72.625 175.0625 C74.80028016 169.38743576 74.43969051 164.01219546 72.30078125 158.36328125 C69.19620641 152.32442471 64.44988694 148.51987697 58.0625 146.375 C50.03067582 145.3425084 42.93650024 146.17111765 37.2734375 152.31640625 Z M36.5625 215.25 C32.02853684 222.12779158 31.18635123 229.30112269 32.0625 237.375 C33.7917637 244.58199122 36.83396993 249.35102428 43.0625 253.375 C49.34288669 257.14323201 55.86108567 257.07691 63.0625 256.375 C64.7125 255.715 66.3625 255.055 68.0625 254.375 C68.0625 250.745 68.0625 247.115 68.0625 243.375 C66.9075 243.725625 65.7525 244.07625 64.5625 244.4375 C59.95017778 245.5640495 56.69652521 245.5145144 52.0625 244.375 C49.42016231 242.18242191 47.59580191 240.44160382 46.0625 237.375 C45.65412339 232.49804083 45.41364369 227.93225515 47.3125 223.375 C51.52297009 218.56303419 51.52297009 218.56303419 55.109375 218.125 C59.81160128 217.99876574 63.66368345 218.57035731 68.0625 220.375 C68.0625 216.745 68.0625 213.115 68.0625 209.375 C57.76104703 202.50736469 44.07757197 205.91969325 36.5625 215.25 Z M-67.9375 207.375 C-68.06182113 212.49779571 -68.1521756 217.6196986 -68.2121582 222.74365234 C-68.23718233 224.48371696 -68.27121294 226.22367773 -68.31469727 227.96337891 C-68.3758892 230.47584755 -68.40382959 232.9869178 -68.42578125 235.5 C-68.45158768 236.26803955 -68.4773941 237.0360791 -68.50398254 237.82739258 C-68.50697762 243.69742903 -66.81857685 247.92541431 -62.9375 252.375 C-56.26654556 257.05832748 -48.84978322 257.3233245 -40.9375 256.375 C-35.89527523 255.1110643 -32.11334328 253.52216417 -28.375 249.875 C-25.6306908 245.10228834 -25.80352854 240.50471643 -25.83984375 235.109375 C-25.8412587 234.31597717 -25.84267365 233.52257935 -25.84413147 232.70513916 C-25.84971585 230.17838728 -25.86226546 227.65172496 -25.875 225.125 C-25.88001702 223.40885545 -25.88457957 221.69270951 -25.88867188 219.9765625 C-25.89968016 215.77600731 -25.91693404 211.57551883 -25.9375 207.375 C-30.2275 207.375 -34.5175 207.375 -38.9375 207.375 C-38.95208252 208.38925049 -38.96666504 209.40350098 -38.98168945 210.44848633 C-39.03966253 214.21154029 -39.11689459 217.97399521 -39.19995117 221.73657227 C-39.23320536 223.36505409 -39.26123584 224.99365131 -39.28393555 226.62231445 C-39.31747357 228.96355361 -39.36978585 231.30373486 -39.42578125 233.64453125 C-39.43536613 234.73686821 -39.43536613 234.73686821 -39.44514465 235.85127258 C-39.59139393 240.8789961 -39.59139393 240.8789961 -41.28588867 243.30737305 C-43.80272171 244.93429262 -45.97102297 245.19337896 -48.9375 245.375 C-51.68704328 244.40894425 -52.62757757 243.99484486 -53.9375 241.375 C-54.09394172 238.82393971 -54.19571389 236.29581337 -54.25390625 233.7421875 C-54.27468735 232.99035187 -54.29546844 232.23851624 -54.31687927 231.46389771 C-54.38232705 229.05935915 -54.44123738 226.65471033 -54.5 224.25 C-54.54318977 222.62108229 -54.58680421 220.99217578 -54.63085938 219.36328125 C-54.73800351 215.36730085 -54.83928433 211.37120941 -54.9375 207.375 C-59.2275 207.375 -63.5175 207.375 -67.9375 207.375 Z M-12.9375 207.375 C-12.9375 223.215 -12.9375 239.055 -12.9375 255.375 C-9.3075 255.375 -5.6775 255.375 -1.9375 255.375 C-1.9375 250.095 -1.9375 244.815 -1.9375 239.375 C0.24875 239.436875 2.435 239.49875 4.6875 239.5625 C10.06395064 239.7146637 13.44319515 239.19902916 18.0625 236.375 C22.74835031 231.43586048 23.3748257 227.21737254 23.27734375 220.62109375 C22.82841674 215.92776587 20.93083856 213.15862261 17.5 210.0625 C13.72655631 207.45011591 11.75864522 207.2551158 7.1796875 207.27734375 C6.12894043 207.27984131 5.07819336 207.28233887 3.99560547 207.28491211 C1.98684326 207.29856812 1.98684326 207.29856812 -0.0625 207.3125 C-6.435625 207.3434375 -6.435625 207.3434375 -12.9375 207.375 Z " fill="#00AEEF" transform="translate(148.9375,-0.37499999999999994)"/>
<path d="M0 0 C3.06243788 0.04948284 4.03476301 0.21322096 6.6875 1.9375 C8.60859443 4.97923285 8.63935216 6.77299143 8.1875 10.3125 C7.1975 11.7975 7.1975 11.7975 6.1875 13.3125 C3.5859375 13.60546875 3.5859375 13.60546875 0.5625 13.5 C-0.94183594 13.45939453 -0.94183594 13.45939453 -2.4765625 13.41796875 C-3.24742187 13.38316406 -4.01828125 13.34835938 -4.8125 13.3125 C-4.83936553 11.33340602 -4.85883375 9.35421029 -4.875 7.375 C-4.88660156 6.27285156 -4.89820313 5.17070312 -4.91015625 4.03515625 C-4.75872317 -0.18679803 -4.40741078 0.36126318 0 0 Z " fill="#00AFF0" transform="translate(151.8125,215.6875)"/>
</svg>
